<?xml version="1.0" encoding="UTF-8" standalone="no"?>
<!-- Created with Inkscape (http://www.inkscape.org/) -->

<svg
   width="24"
   height="24"
   viewBox="0 0 24 24"
   version="1.1"
   id="svg1"
   inkscape:version="1.4.2 (f4327f4, 2025-05-13)"
   sodipodi:docname="draft.svg"
   xmlns:inkscape="http://www.inkscape.org/namespaces/inkscape"
   xmlns:sodipodi="http://sodipodi.sourceforge.net/DTD/sodipodi-0.dtd"
   xmlns="http://www.w3.org/2000/svg"
   xmlns:svg="http://www.w3.org/2000/svg">
  <sodipodi:namedview
     id="namedview1"
     pagecolor="#ffffff"
     bordercolor="#000000"
     borderopacity="0.25"
     inkscape:showpageshadow="2"
     inkscape:pageopacity="0.0"
     inkscape:pagecheckerboard="0"
     inkscape:deskcolor="#d1d1d1"
     inkscape:document-units="px"
     inkscape:zoom="22.825407"
     inkscape:cx="11.544153"
     inkscape:cy="12.858478"
     inkscape:window-width="1920"
     inkscape:window-height="1009"
     inkscape:window-x="1912"
     inkscape:window-y="-8"
     inkscape:window-maximized="1"
     inkscape:current-layer="layer1" />
  <defs
     id="defs1">
    <inkscape:path-effect
       effect="spiro"
       id="path-effect26"
       is_visible="true"
       lpeversion="1" />
    <inkscape:path-effect
       effect="spiro"
       id="path-effect25"
       is_visible="true"
       lpeversion="1" />
    <inkscape:path-effect
       effect="spiro"
       id="path-effect24"
       is_visible="true"
       lpeversion="1" />
    <inkscape:path-effect
       effect="spiro"
       id="path-effect23"
       is_visible="true"
       lpeversion="1" />
    <inkscape:path-effect
       effect="spiro"
       id="path-effect22"
       is_visible="true"
       lpeversion="1" />
    <inkscape:path-effect
       effect="spiro"
       id="path-effect21"
       is_visible="true"
       lpeversion="1" />
    <inkscape:path-effect
       effect="spiro"
       id="path-effect20"
       is_visible="true"
       lpeversion="1" />
    <inkscape:path-effect
       effect="spiro"
       id="path-effect19"
       is_visible="true"
       lpeversion="1" />
    <inkscape:path-effect
       effect="spiro"
       id="path-effect18"
       is_visible="true"
       lpeversion="1" />
    <inkscape:path-effect
       effect="spiro"
       id="path-effect17"
       is_visible="true"
       lpeversion="1" />
    <inkscape:path-effect
       effect="spiro"
       id="path-effect16"
       is_visible="true"
       lpeversion="1" />
    <inkscape:path-effect
       effect="spiro"
       id="path-effect15"
       is_visible="true"
       lpeversion="1" />
    <inkscape:path-effect
       effect="spiro"
       id="path-effect14"
       is_visible="true"
       lpeversion="1" />
    <inkscape:path-effect
       effect="spiro"
       id="path-effect13"
       is_visible="true"
       lpeversion="1" />
    <inkscape:path-effect
       effect="spiro"
       id="path-effect12"
       is_visible="true"
       lpeversion="1" />
    <inkscape:path-effect
       effect="spiro"
       id="path-effect11"
       is_visible="true"
       lpeversion="1" />
    <inkscape:path-effect
       effect="spiro"
       id="path-effect10"
       is_visible="true"
       lpeversion="1" />
    <inkscape:path-effect
       effect="spiro"
       id="path-effect9"
       is_visible="true"
       lpeversion="1" />
    <inkscape:path-effect
       effect="spiro"
       id="path-effect8"
       is_visible="true"
       lpeversion="1" />
    <inkscape:path-effect
       effect="spiro"
       id="path-effect7"
       is_visible="true"
       lpeversion="1" />
    <inkscape:path-effect
       effect="spiro"
       id="path-effect6"
       is_visible="true"
       lpeversion="1" />
    <inkscape:path-effect
       effect="spiro"
       id="path-effect3"
       is_visible="true"
       lpeversion="1" />
    <inkscape:path-effect
       effect="spiro"
       id="path-effect1"
       is_visible="true"
       lpeversion="1" />
    <inkscape:path-effect
       effect="spiro"
       id="path-effect5"
       is_visible="true"
       lpeversion="1" />
    <inkscape:path-effect
       effect="spiro"
       id="path-effect4"
       is_visible="true"
       lpeversion="1" />
    <inkscape:path-effect
       effect="spiro"
       id="path-effect2"
       is_visible="true"
       lpeversion="1" />
    <inkscape:path-effect
       effect="spiro"
       id="path-effect22-4"
       is_visible="true"
       lpeversion="1" />
  </defs>
  <g
     inkscape:label="Layer 1"
     inkscape:groupmode="layer"
     id="layer1">
    <path
       style="fill:none;fill-opacity:1;stroke:currentColor;stroke-width:1.3"
       d="m 4.1182179,8.1488142 c 0.7307763,0.010172 1.4612874,0.039393 2.1905415,0.087622 0.5990432,0.039618 1.1971849,0.092055 1.7962439,0.1314325 0.6710023,0.044106 1.3430331,0.071818 2.0152977,0.087622 0.789065,0.01855 1.579341,0.020741 2.365785,0.087622 0.292108,0.024842 0.588923,0.058363 0.876217,0 0.146221,-0.029704 0.28897,-0.08307 0.438108,-0.087622 0.08768,-0.00268 0.175925,0.011668 0.262865,0 0.105518,-0.014162 0.202489,-0.065719 0.306676,-0.087622 0.100357,-0.021098 0.204279,-0.0141 0.306448,-0.00525 0.102169,0.00885 0.205336,0.019427 0.306903,0.00525 0.102658,-0.014326 0.203508,-0.053826 0.306676,-0.043811 0.102693,0.00997 0.19687,0.070122 0.259855,0.1518405 0.06299,0.081719 0.09668,0.1833209 0.108671,0.2857971 0.02398,0.2049526 -0.03462,0.4092756 -0.06185,0.6138223 -0.07998,0.6009092 0.110911,1.1997584 0.219054,1.7962434 0.07081,0.390585 0.106402,0.786731 0.131433,1.182893 0.07187,1.137429 0.05731,2.278989 0,3.417244 -0.06258,1.242826 -0.175329,2.498968 0.04381,3.723921 0.0182,0.101727 0.03871,0.20346 0.04381,0.306676 0.0084,0.169406 -0.02495,0.337683 -0.04363,0.506264 -0.01868,0.16858 -0.02168,0.344852 0.04363,0.501385 0.05917,0.141812 0.170638,0.257946 0.223262,0.402315 0.02631,0.07218 0.03687,0.15226 0.01585,0.226157 -0.01051,0.03695 -0.02891,0.07185 -0.05485,0.100179 -0.02595,0.02833 -0.05955,0.04991 -0.09664,0.05994 -0.04243,0.01148 -0.08729,0.0082 -0.131133,0.0051 -0.04384,-0.0031 -0.08777,-0.0051 -0.131732,-0.0051 H 15.289976 11.127948 5.6077831 c -0.1100076,0 -0.219921,-0.0055 -0.3295629,-0.01449 -0.1096418,-0.009 -0.2225836,-0.01827 -0.3275995,0.01449 -0.075748,0.02363 -0.1434735,0.06885 -0.2195674,0.09134 -0.038047,0.01125 -0.078445,0.01663 -0.117567,0.01003 -0.039122,-0.0066 -0.076918,-0.02601 -0.1009739,-0.05756 -0.013803,-0.0181 -0.022759,-0.03965 -0.027428,-0.06193 -0.00467,-0.02228 -0.00515,-0.04531 -0.00302,-0.06797 0.00426,-0.04533 0.018738,-0.08896 0.030448,-0.132961 0.052912,-0.198805 0.049711,-0.40771 0.043811,-0.613351 C 4.5398778,20.193163 4.5048878,19.617592 4.3810829,19.057711 4.1711417,18.108298 3.7093334,17.21912 3.592488,16.253818 c -0.086068,-0.711036 0.019446,-1.430769 0,-2.146731 -0.015889,-0.585004 -0.1152444,-1.167866 -0.087622,-1.752433 0.029861,-0.63194 0.2076095,-1.251324 0.2190542,-1.883866 0.00529,-0.292493 -0.02509,-0.5842756 -0.043811,-0.8762165 -0.028232,-0.4402528 -0.029129,-0.8888972 0.087622,-1.3143248 0.030241,-0.1101931 0.068423,-0.219177 0.079796,-0.332877 0.00569,-0.05685 0.00452,-0.1147067 -0.00773,-0.1705119 C 3.8275493,7.7210527 3.8039352,7.6672829 3.7677312,7.6230842 3.7546227,7.607081 3.7399234,7.5923817 3.7239202,7.5792732 v -0.087622"
       id="path22"
       inkscape:path-effect="#path-effect23"
       inkscape:original-d="m 4.1182179,8.1488142 c 0.7279189,0.071669 1.4603246,0.061542 2.1905415,0.087622 0.5996101,0.021415 1.196891,0.1074584 1.7962439,0.1314325 0.6726038,0.026904 1.3433646,0.033867 2.0152977,0.087622 0.792897,0.063432 1.571535,0.087622 2.365785,0.087622 0.235348,0 0.651819,0.056099 0.876217,0 0.145288,-0.036322 0.288308,-0.066222 0.438108,-0.087622 0.08061,-0.011516 0.181819,0.016209 0.262865,0 0.10886,-0.021772 0.203271,-0.06177 0.306676,-0.087622 0.192424,-0.048106 0.420927,0.048106 0.613351,0 0.05103,-0.012759 0.252846,-0.097641 0.306676,-0.043811 0.09416,0.094164 0.287617,0.9670551 0.306676,1.0514599 0.303814,1.3454634 0.09408,0.2340656 0.219054,1.7962434 0.03164,0.395461 0.101576,0.787294 0.131433,1.182893 0.08613,1.141276 0.02654,2.27622 0,3.417244 -0.02877,1.23719 -0.03323,2.491237 0.04381,3.723921 0.0064,0.103062 0.03446,0.203837 0.04381,0.306676 0.02994,0.329333 -0.05427,0.682032 0,1.007649 0.01535,0.09207 0.111231,0.741376 0.08762,0.788595 -0.0071,0.01416 -0.190217,0 -0.262865,0 -0.189847,0 -0.379694,0 -0.569541,0 -1.387343,0 -2.774686,0 -4.162028,0 -1.8400553,0 -3.6801101,0 -5.5201649,0 -0.2190541,0 -0.4384456,-0.01215 -0.6571624,0 -0.081023,0.0045 -0.3635124,0.118406 -0.4381083,0.04381 -0.061958,-0.06196 0,-0.175243 0,-0.262865 0,-0.66545 -0.010868,0.206833 0.043811,-0.613351 C 4.594753,20.189931 4.5126953,19.620055 4.3810829,19.057711 4.1613273,18.118755 3.7363323,17.21278 3.592488,16.253818 c -0.1081747,-0.721165 0,-1.428324 0,-2.146731 0,-0.582628 -0.1383868,-1.168635 -0.087622,-1.752433 0.054592,-0.627814 0.1874758,-1.252298 0.2190542,-1.883866 0.027613,-0.5522589 -0.01322,-0.325573 -0.043811,-0.8762165 -0.025336,-0.4560463 0.042205,-0.8601608 0.087622,-1.3143248 0.017918,-0.1791848 0.036149,-0.4764195 0,-0.6571625 -0.00405,-0.020251 -0.029207,-0.029207 -0.043811,-0.043811 0,-0.029207 0,-0.058414 0,-0.087622" />
    <path
       style="fill:none;fill-opacity:1;stroke:currentColor;stroke-width:1.3"
       d="m 16.341439,3.5048663 c 0.03472,0.00185 0.06877,0.014631 0.09614,0.036071 0.02737,0.021441 0.04793,0.051447 0.05804,0.084712 0.01011,0.033265 0.0097,0.069637 -0.0011,0.1026816 -0.01081,0.033045 -0.03199,0.062613 -0.05981,0.083473 -0.02781,0.020861 -0.06213,0.032919 -0.09688,0.034042 -0.03475,0.00112 -0.06977,-0.00869 -0.09888,-0.027714 -0.0291,-0.019021 -0.05215,-0.047159 -0.06507,-0.079437 -0.01292,-0.032278 -0.01565,-0.068549 -0.0077,-0.1023975 0.0091,-0.038592 0.03204,-0.07376 0.06375,-0.097544 0.03171,-0.023784 0.07191,-0.036002 0.111492,-0.033889 0.02858,0.00153 0.05668,0.010358 0.0813,0.024957 0.02462,0.014599 0.04576,0.034903 0.06184,0.058587 0.03215,0.047367 0.04323,0.107599 0.03444,0.16417 -0.0088,0.056571 -0.03658,0.1093612 -0.07493,0.1518696 -0.03835,0.042508 -0.08691,0.075069 -0.139011,0.098807 -0.104192,0.047477 -0.220338,0.059921 -0.334002,0.073729 -0.113663,0.013808 -0.229942,0.030483 -0.330607,0.085042 -0.132305,0.071708 -0.223419,0.201431 -0.290847,0.3359671 -0.06743,0.1345361 -0.116196,0.2782794 -0.191072,0.408817 -0.113785,0.1983699 -0.282747,0.3579188 -0.438108,0.52573 -0.284246,0.3070247 -0.528634,0.6494049 -0.744785,1.007649 -0.07119,0.1179924 -0.139507,0.2379579 -0.219054,0.3504867 -0.244801,0.3462977 -0.586724,0.6101182 -0.876216,0.9200274 -0.497197,0.5322625 -0.83799,1.1987635 -1.358136,1.7086223 -0.05901,0.057842 -0.120245,0.113575 -0.175243,0.1752433 -0.111402,0.1249129 -0.19497,0.2715328 -0.285634,0.4122225 -0.09066,0.14069 -0.191636,0.278928 -0.327718,0.376372 -0.06642,0.04756 -0.14041,0.08479 -0.201846,0.138632 -0.03072,0.02692 -0.05818,0.05808 -0.07751,0.09406 -0.01933,0.03599 -0.03024,0.07705 -0.02732,0.117791 0.0011,0.01473 0.0039,0.02929 0.005,0.04401 0.0011,0.01472 5.3e-4,0.02993 -0.005,0.04361 -0.006,0.01488 -0.01758,0.02697 -0.03051,0.0365 -0.01293,0.0095 -0.02735,0.01679 -0.04139,0.02459 -0.01404,0.0078 -0.02792,0.01631 -0.0391,0.02784 -0.01118,0.01153 -0.01954,0.02647 -0.02043,0.0425 -6.81e-4,0.01236 0.0031,0.02455 0.0078,0.03597 0.0048,0.01142 0.01065,0.0224 0.01459,0.03414 0.0039,0.01173 0.0059,0.02457 0.0025,0.03649 -0.0017,0.006 -0.0047,0.01159 -0.009,0.01605 -0.0043,0.0045 -0.0099,0.0077 -0.01602,0.0088 -0.0073,0.0013 -0.01473,-4.3e-4 -0.02204,-0.0016 -0.0037,-5.97e-4 -0.0074,-0.0011 -0.01105,-9.31e-4 -0.0037,1.27e-4 -0.0074,8.63e-4 -0.01072,0.0026 -0.0035,0.0018 -0.0064,0.0046 -0.0085,0.008 -0.0021,0.0033 -0.0034,0.0071 -0.0039,0.01102 -0.0012,0.0078 4.59e-4,0.01571 0.0029,0.02318 0.0024,0.0075 0.0057,0.01468 0.0079,0.02221 0.0022,0.0075 0.0034,0.01559 0.0017,0.02325 -0.0012,0.0052 -0.0037,0.0099 -0.0069,0.01416 -0.0032,0.0042 -0.0071,0.0079 -0.01121,0.01116 -0.0083,0.0066 -0.01758,0.01178 -0.02574,0.01849 -0.02073,0.01706 -0.03271,0.04313 -0.03659,0.06969 -0.0039,0.02656 -2.81e-4,0.0537 0.0059,0.07982 0.0062,0.02612 0.01498,0.05155 0.02168,0.07754 0.0067,0.02599 0.01133,0.05289 0.009,0.07963 -0.0041,0.04618 -0.02829,0.08775 -0.04381,0.131432 -0.02709,0.07628 -0.0275,0.159419 -0.02068,0.240077 0.0068,0.08066 0.02057,0.160897 0.02068,0.241843 2.23e-4,0.161568 -0.05383,0.320661 -0.04381,0.481919 0.0084,0.134589 0.06081,0.26214 0.08762,0.394297 0.03834,0.189014 0.02299,0.388614 -0.04381,0.569541 -0.06001,0.05492 -0.0932,0.137895 -0.08762,0.219054 0.0039,0.05624 0.02512,0.110253 0.02831,0.166533 0.0016,0.02814 -0.0015,0.05702 -0.01317,0.08269 -0.01163,0.02567 -0.03244,0.04789 -0.05896,0.05745 -0.01137,0.0041 -0.0238,0.006 -0.03382,0.01272 -0.00501,0.0034 -0.00932,0.008 -0.011456,0.01369 -0.00107,0.0028 -0.00158,0.0059 -0.00136,0.0089 2.136e-4,0.003 0.00116,0.006 0.00283,0.0085 0.00222,0.0033 0.00566,0.0058 0.00944,0.0072 0.00378,0.0013 0.0079,0.0016 0.01189,0.0012 0.008,-9.25e-4 0.01531,-0.0047 0.02248,-0.0083 0.277739,-0.140528 0.601021,-0.162392 0.911571,-0.141283 0.31055,0.02111 0.617587,0.0823 0.928484,0.09747 0.102144,0.005 0.204531,0.005 0.306675,0 0.01845,-0.0289 0.04485,-0.05268 0.07552,-0.06801 0.03067,-0.01534 0.06553,-0.02219 0.09972,-0.01961 0.03548,0.0027 0.06941,0.01517 0.102463,0.02833 0.03306,0.01315 0.06614,0.0272 0.101205,0.03324 0.03506,0.006 0.07297,0.0033 0.103312,-0.01523 0.01517,-0.0093 0.02811,-0.02246 0.03616,-0.03832 0.0081,-0.01586 0.01105,-0.03443 0.0073,-0.05183 -0.0016,-0.0075 -0.0044,-0.0147 -0.0054,-0.02228 -4.92e-4,-0.0038 -5.22e-4,-0.0077 2.8e-4,-0.01141 8.03e-4,-0.0037 0.0025,-0.0073 0.0051,-0.01012 0.0027,-0.0028 0.0062,-0.0047 0.0099,-0.0057 0.0037,-9.96e-4 0.0077,-0.0011 0.01155,-6.52e-4 0.0077,9e-4 0.01496,0.004 0.02232,0.0064 0.03285,0.01087 0.06937,0.0094 0.101814,-0.0027 0.03244,-0.01204 0.06075,-0.03432 0.08141,-0.06208 0.02065,-0.02776 0.03377,-0.06085 0.03937,-0.09499 0.0056,-0.03415 0.0038,-0.06932 -0.0035,-0.103131 -0.0048,-0.02219 -0.01209,-0.04394 -0.01448,-0.06653 -0.0012,-0.01129 -0.0012,-0.02278 0.001,-0.03393 0.0022,-0.01115 0.0065,-0.02196 0.01346,-0.03097 0.01009,-0.01317 0.02502,-0.02184 0.04043,-0.02799 0.01541,-0.0061 0.03161,-0.01009 0.04719,-0.01582 0.03964,-0.01457 0.07447,-0.04049 0.103243,-0.0714 0.02877,-0.03091 0.05177,-0.06677 0.072,-0.103839 0.05154,-0.09444 0.08585,-0.197368 0.135314,-0.292909 0.04947,-0.09554 0.118012,-0.186619 0.215173,-0.232821 0.02973,-0.01414 0.06139,-0.02371 0.09191,-0.03603 0.03052,-0.01232 0.06053,-0.02785 0.08333,-0.05159 0.01829,-0.01905 0.03115,-0.04254 0.0438,-0.06572 0.01265,-0.02318 0.02552,-0.04667 0.04382,-0.06571 0.02559,-0.02662 0.0599,-0.04266 0.09234,-0.0603 0.01622,-0.0088 0.03221,-0.01822 0.04665,-0.02973 0.01444,-0.01151 0.02734,-0.02523 0.03625,-0.0414 0.01121,-0.02033 0.0157,-0.04356 0.02052,-0.06627 0.0048,-0.02271 0.01037,-0.04588 0.02329,-0.06517 0.0092,-0.01381 0.02197,-0.02507 0.03603,-0.03393 0.01406,-0.0089 0.02947,-0.01541 0.04515,-0.02089 0.03137,-0.01098 0.06431,-0.01796 0.09406,-0.03279 0.0425,-0.0212 0.07591,-0.05727 0.102766,-0.09644 0.02686,-0.03917 0.04801,-0.08191 0.07248,-0.122612 0.138889,-0.231088 0.374461,-0.383433 0.56954,-0.569541 0.302905,-0.288976 0.509336,-0.661495 0.744785,-1.007649 0.204452,-0.300583 0.43429,-0.5853616 0.700973,-0.8324055 0.09103,-0.084321 0.18684,-0.1648048 0.262865,-0.262865 0.06455,-0.083255 0.113491,-0.1775172 0.175243,-0.2628649 0.121899,-0.1684778 0.292434,-0.3006245 0.394298,-0.4819191 0.04186,-0.074507 0.07225,-0.157403 0.131432,-0.2190542 0.05065,-0.052761 0.118314,-0.085517 0.175243,-0.1314325 0.104849,-0.084565 0.170501,-0.2158683 0.175244,-0.3504866 0.06652,-0.031323 0.126548,-0.076346 0.175243,-0.1314325 0.06079,-0.068765 0.103067,-0.1516885 0.14121,-0.2351671 0.03814,-0.083479 0.07303,-0.1689123 0.121655,-0.246752 0.05279,-0.084513 0.120689,-0.1583286 0.185191,-0.2342838 0.0645,-0.075955 0.126707,-0.1557624 0.165296,-0.2476353 0.02903,-0.069115 0.04402,-0.1440904 0.04381,-0.2190542 0.04529,-0.026898 0.08918,-0.056158 0.131433,-0.087622 0.03009,-0.02241 0.05957,-0.04615 0.08363,-0.074946 0.02405,-0.028796 0.04257,-0.063144 0.04781,-0.1002974 0.002,-0.014508 0.002,-0.029303 0,-0.043811 0.0086,-0.03171 0.02363,-0.061678 0.04381,-0.087622 0.01271,-0.016344 0.02747,-0.031099 0.04381,-0.043811 0.03363,-0.00133 0.06638,-0.017704 0.08762,-0.043811 0.01257,-0.015447 0.02108,-0.03385 0.0272,-0.052798 0.0061,-0.018948 0.01,-0.038543 0.01402,-0.058037 0.0041,-0.019494 0.0084,-0.03902 0.01543,-0.057644 0.007,-0.018625 0.01694,-0.036433 0.03096,-0.050575 0.01868,-0.018844 0.04344,-0.030118 0.06728,-0.04178 0.02383,-0.011663 0.04807,-0.024742 0.06416,-0.045842 0.0141,-0.018487 0.02067,-0.041534 0.02564,-0.064245 0.005,-0.022712 0.0087,-0.045961 0.01817,-0.067187 0.0097,-0.021805 0.02521,-0.040622 0.04243,-0.057176 0.01721,-0.016554 0.03626,-0.031062 0.05466,-0.046279 0.01841,-0.015217 0.03633,-0.031308 0.05069,-0.050391 0.01436,-0.019083 0.02507,-0.041447 0.02747,-0.065208 0.0015,-0.01458 -2.05e-4,-0.029265 -0.0014,-0.043869 -0.0012,-0.014604 -0.0019,-0.029482 0.0014,-0.043753 0.0037,-0.015966 0.01229,-0.030324 0.02101,-0.044206 0.0087,-0.013882 0.01782,-0.027798 0.0228,-0.043416 0.0071,-0.02234 0.0052,-0.047101 -0.0035,-0.068872 -0.0087,-0.021772 -0.02392,-0.040621 -0.04217,-0.055347 -0.0365,-0.029451 -0.08352,-0.042142 -0.129567,-0.051025 -0.127481,-0.02459 -0.258905,-0.025748 -0.385377,-0.055092 -0.06324,-0.014672 -0.12529,-0.036555 -0.180653,-0.070453 -0.05536,-0.033898 -0.103927,-0.080295 -0.134944,-0.1373208 -0.01561,-0.0287 -0.02669,-0.059798 -0.04381,-0.087622 -0.02264,-0.036785 -0.05525,-0.066711 -0.09134,-0.090438 -0.03609,-0.023726 -0.07572,-0.041553 -0.115792,-0.057668 -0.08015,-0.032231 -0.164851,-0.059168 -0.230972,-0.114759 -0.0317,-0.026655 -0.05799,-0.059026 -0.08505,-0.090387 -0.02706,-0.03136 -0.05548,-0.06225 -0.09019,-0.084857 -0.0414,-0.026968 -0.08967,-0.040859 -0.136213,-0.057458 -0.04654,-0.016599 -0.09355,-0.037294 -0.126652,-0.073975 -0.03536,-0.039185 -0.05148,-0.092964 -0.08762,-0.1314324 -0.02259,-0.024045 -0.05191,-0.040823 -0.08226,-0.053752 -0.03035,-0.012929 -0.06208,-0.022327 -0.09298,-0.03387 -0.03493,-0.013046 -0.06902,-0.028949 -0.09954,-0.050361 -0.03052,-0.021412 -0.05747,-0.048545 -0.0757,-0.081071 -0.01599,-0.028524 -0.02512,-0.060793 -0.04381,-0.087622 -0.01824,-0.026183 -0.04481,-0.045814 -0.0737,-0.059369 -0.02889,-0.013555 -0.06014,-0.021351 -0.09152,-0.027141 -0.06276,-0.011579 -0.128423,-0.015918 -0.18527,-0.044923 -0.04182,-0.021336 -0.07606,-0.054687 -0.109578,-0.087551 -0.03352,-0.032864 -0.06771,-0.066253 -0.109476,-0.087692 -0.05207,-0.02673 -0.114372,-0.032855 -0.170648,-0.016776 -0.05628,0.016079 -0.105941,0.054195 -0.136028,0.1043975 z"
       id="path24"
       inkscape:path-effect="#path-effect24"
       inkscape:original-d="m 16.341439,3.5048663 c -0.05841,0.043811 -0.219054,0.073018 -0.175243,0.1314325 0.04381,0.058414 0.226875,-0.183064 0.175243,-0.1314325 -0.229007,0.2290071 -0.483661,0.4157046 -0.700973,0.6571624 -0.207347,0.230385 -0.314308,0.4933675 -0.481919,0.7447841 -0.126536,0.1898037 -0.297174,0.3463584 -0.438108,0.52573 -0.255364,0.3250076 -0.510674,0.6671249 -0.744785,1.007649 -0.07805,0.1135284 -0.132989,0.2429062 -0.219054,0.3504867 -0.254406,0.3180073 -0.597599,0.6181923 -0.876216,0.9200274 -0.494105,0.5352802 -0.904502,1.1415798 -1.358136,1.7086223 -0.05161,0.064508 -0.12036,0.1134995 -0.175243,0.1752433 -0.220725,0.2483149 -0.402777,0.5312255 -0.613352,0.7885945 -0.0983,0.120148 -0.226806,0.217371 -0.306676,0.350487 -0.01503,0.02505 0.0092,0.05991 0,0.08762 -0.01959,0.05878 -0.108422,0.07391 -0.131432,0.131432 -0.01627,0.04068 0.01385,0.08987 0,0.131433 -0.0046,0.01385 -0.03349,-0.01033 -0.04381,0 -0.02065,0.02065 0.01306,0.0615 0,0.08762 -0.0092,0.01847 -0.03728,0.02422 -0.04381,0.04381 -0.0288,0.0864 0.01477,0.218033 0,0.306676 -0.0076,0.04555 -0.03728,0.08572 -0.04381,0.131432 -0.02249,0.157427 0.02249,0.324493 0,0.48192 -0.02485,0.173968 -0.06264,0.293585 -0.04381,0.481919 0.03944,0.394359 0.03884,0.0528 0.08762,0.394297 0.02425,0.169728 -0.01382,0.419608 -0.04381,0.569541 0.01005,0.08798 -0.06855,0.142759 -0.08762,0.219054 -0.02312,0.09247 -0.01391,0.216981 -0.04381,0.306676 -0.0065,0.01959 -0.043811,0.02316 -0.043811,0.04381 0,0.0146 0.029207,0 0.043811,0 0.614295,0 1.231084,0.02385 1.840055,-0.04381 0.115003,-0.01278 0.187413,0.01704 0.306675,0 0.123244,0.092 0.111203,-0.07481 0.175244,-0.08762 0.05781,-0.01156 0.317648,-0.01097 0.350486,-0.04381 0.01033,-0.01033 -0.01033,-0.03348 0,-0.04381 0.01033,-0.01033 0.03241,0.0091 0.04381,0 0.04296,-0.03437 0.199715,-0.166167 0.219054,-0.262865 0.0086,-0.04296 -0.01959,-0.09225 0,-0.131433 0.0146,-0.02921 0.06254,-0.02291 0.08762,-0.04381 0.06346,-0.05289 0.121481,-0.11252 0.175243,-0.175243 0.128194,-0.149559 0.199893,-0.400235 0.350487,-0.52573 0.05017,-0.04181 0.125071,-0.04581 0.175243,-0.08762 0.04045,-0.03371 0.05039,-0.0942 0.08762,-0.131432 0.130465,-0.130465 0.05707,0.06552 0.175243,-0.131433 0.02376,-0.0396 0.01116,-0.09878 0.04381,-0.131432 0.04618,-0.04618 0.126093,-0.04462 0.175243,-0.08762 0.07037,-0.06158 0.11312,-0.149165 0.175244,-0.219054 0.175977,-0.197974 0.406946,-0.360491 0.56954,-0.569541 0.257684,-0.331307 0.46359,-0.691304 0.744785,-1.007649 0.241594,-0.271793 0.459011,-0.5581826 0.700973,-0.8324055 0.08198,-0.092917 0.183536,-0.1676702 0.262865,-0.262865 0.06742,-0.0809 0.109458,-0.1806331 0.175243,-0.2628649 0.130217,-0.1627709 0.273247,-0.3124477 0.394298,-0.4819191 0.04949,-0.069292 0.07536,-0.1549701 0.131432,-0.2190542 0.04808,-0.054952 0.123612,-0.079801 0.175243,-0.1314325 0.104462,-0.1044619 0.09225,-0.2398292 0.175244,-0.3504866 0.01084,-0.1040515 0.129629,-0.074415 0.175243,-0.1314325 0.10694,-0.1336751 0.177843,-0.3331308 0.262865,-0.4819191 0.09839,-0.1721776 0.262818,-0.3065818 0.350487,-0.4819191 0.02852,-0.057037 0.0096,-0.1677266 0.04381,-0.2190542 0.0532,-0.026602 0.09798,-0.037446 0.131433,-0.087622 0.03019,-0.045283 0.107225,-0.1268286 0.131432,-0.1752433 0.0065,-0.013062 0,-0.029207 0,-0.043811 0.0146,-0.029207 0.0257,-0.060451 0.04381,-0.087622 0.01146,-0.017184 0.02921,-0.029207 0.04381,-0.043811 0.02921,-0.014604 0.06803,-0.017687 0.08762,-0.043811 0.05133,-0.068437 0.02515,-0.1565773 0.08762,-0.2190541 0.03723,-0.037232 0.09854,-0.046506 0.131433,-0.087622 0.02885,-0.036061 0.02316,-0.090127 0.04381,-0.1314325 0.03952,-0.079042 0.136829,-0.1422262 0.175243,-0.2190541 0.01306,-0.026124 -0.02065,-0.066969 0,-0.087622 0.01891,-0.01891 0.08013,-0.014978 0.04381,-0.087622 C 19.458871,5.1834123 19.385075,5.1336643 19.320568,5.0820579 19.137196,4.9353603 18.812842,4.9641285 18.619594,4.819193 18.593474,4.7996 18.598874,4.754662 18.575784,4.731571 18.455464,4.6112505 18.270574,4.5750245 18.137676,4.468706 18.073166,4.4171 18.028521,4.343029 17.962433,4.2934627 c -0.175243,-0.1314325 0,0.087622 -0.262865,-0.1314325 -0.04045,-0.033708 -0.04717,-0.097724 -0.08762,-0.1314324 -0.05017,-0.04181 -0.120902,-0.051395 -0.175243,-0.087622 -0.06076,-0.040503 -0.123612,-0.079801 -0.175243,-0.1314325 -0.02309,-0.02309 -0.02072,-0.064531 -0.04381,-0.087622 -0.06164,-0.061636 -0.253104,-0.06651 -0.350487,-0.1314325 -0.0355,-0.023668 -0.183983,-0.1796272 -0.219054,-0.1752433 -0.105495,0.013187 -0.204451,0.058414 -0.306676,0.087622 z"
       transform="translate(1.5771898,-1.3581357)" />
    <path
       style="fill:none;fill-opacity:1;stroke:currentColor;stroke-width:1.3"
       d="m 6.6154352,16.210007 c -0.080492,-0.127462 -0.1042408,-0.289359 -0.063748,-0.434569 0.040493,-0.14521 0.1445914,-0.271455 0.2794264,-0.338873 0.134835,-0.06742 0.2982906,-0.07495 0.4387541,-0.02022 0.1404635,0.05473 0.2557311,0.170869 0.309406,0.31174 0.013719,0.03601 0.023722,0.07376 0.043002,0.107116 0.00964,0.01668 0.021624,0.03218 0.036523,0.04439 0.014899,0.01221 0.03283,0.02105 0.051908,0.02374 0.014484,0.002 0.029194,5.36e-4 0.043811,0 0.1026772,-0.0038 0.2008012,0.04022 0.2909949,0.08943 0.090194,0.04921 0.1787116,0.105337 0.2785459,0.129624 0.1485679,0.03614 0.3067435,-0.0029 0.443658,-0.07096 0.1369145,-0.06807 0.2577544,-0.163794 0.3840291,-0.250012 0.1262747,-0.08622 0.262431,-0.164764 0.4130106,-0.191306 0.07529,-0.01327 0.1534693,-0.01305 0.2275681,0.0058 0.074099,0.01882 0.1439673,0.05672 0.1965457,0.112215 0.028727,0.03032 0.051965,0.06535 0.078634,0.0975 0.02667,0.03215 0.05787,0.06213 0.09661,0.07774 0.02621,0.01056 0.05488,0.01413 0.08077,0.02546 0.01294,0.0057 0.0252,0.01335 0.0346,0.0239 0.0094,0.01055 0.01578,0.02414 0.01607,0.03826 1.52e-4,0.0074 -0.0013,0.01468 -0.0021,0.02202 -7.73e-4,0.0073 -7.96e-4,0.015 0.0021,0.02179 0.0032,0.0076 0.01,0.01341 0.01762,0.01644 0.0077,0.003 0.01621,0.0034 0.02436,0.0022 0.0163,-0.0026 0.03075,-0.0115 0.04564,-0.01861 0.04431,-0.02116 0.09492,-0.02669 0.143821,-0.02225 0.0489,0.0044 0.09643,0.01846 0.1427,0.0349 0.09253,0.03287 0.184831,0.07637 0.28302,0.07497 0.0892,-0.0013 0.173653,-0.03982 0.250466,-0.08519 0.07681,-0.04537 0.149554,-0.09849 0.231453,-0.133863 0.14023,-0.06056 0.300105,-0.06596 0.438109,-0.131433 0.04774,-0.02265 0.09216,-0.05227 0.131432,-0.08762"
       id="path25"
       inkscape:path-effect="#path-effect25"
       inkscape:original-d="m 6.6154352,16.210007 c 0.1852873,-0.317694 0.5768996,-0.714083 0.9638382,-0.481919 0.328951,0.19737 0.035349,-0.01692 0.1314325,0.175243 0.00653,0.01306 0.030749,-0.0065 0.043811,0 0.2144144,0.107207 0.2765102,0.27766 0.5695408,0.219054 0.5313319,-0.106266 1.1114739,-0.504965 1.6648115,-0.394297 0.1204598,0.02409 0.089889,0.11834 0.1752428,0.175243 0.04002,0.02668 0.10632,0.0374 0.131433,0.08762 0.0065,0.01306 -0.01033,0.03348 0,0.04381 0.02065,0.02065 0.05991,-0.0092 0.08762,0 0.190143,0.06338 0.361657,0.129199 0.569541,0.08762 0.153744,-0.03075 0.333325,-0.16502 0.481919,-0.219054 0.143287,-0.0521 0.296547,-0.07481 0.438109,-0.131433 0.09941,-0.03976 0.0015,-0.08762 0.131432,-0.08762" />
    <path
       style="fill:none;fill-opacity:1;stroke:currentColor;stroke-width:1.3"
       d="m 6.7030568,18.970089 c 0.055722,-0.320074 0.2752478,-0.607147 0.5695408,-0.744784 0.1033017,-0.04831 0.215655,-0.07915 0.3296622,-0.08193 0.1140071,-0.0028 0.2296912,0.02329 0.3275002,0.08193 0.045171,0.02708 0.086151,0.06073 0.1314325,0.08762 0.050929,0.03025 0.1065631,0.05154 0.1602042,0.07667 0.053641,0.02513 0.1064149,0.05494 0.1464716,0.09857 0.03567,0.03886 0.059551,0.08677 0.087622,0.131432 0.071729,0.114116 0.1725226,0.20859 0.2863667,0.280751 0.113844,0.07216 0.2405839,0.122538 0.3707957,0.157358 0.1044162,0.02792 0.2128495,0.04612 0.3205038,0.03648 0.1076542,-0.0096 0.2150504,-0.04906 0.2928478,-0.124098 0.02976,-0.0287 0.054972,-0.06225 0.087622,-0.08762 0.053853,-0.04184 0.1233126,-0.05786 0.1911047,-0.06527 0.06779,-0.0074 0.136654,-0.0074 0.203193,-0.02235 0.108765,-0.02442 0.204444,-0.08699 0.306676,-0.131433 0.110877,-0.0482 0.230228,-0.07518 0.350487,-0.08762 0.09038,-0.0093 0.183208,-0.0104 0.270459,0.01497 0.04363,0.01269 0.08552,0.03199 0.122186,0.05882 0.03667,0.02683 0.06802,0.06129 0.08927,0.10145 0.01255,0.02372 0.02153,0.04921 0.03414,0.0729 0.01261,0.02369 0.02966,0.04617 0.05348,0.05853 0.01364,0.0071 0.02891,0.01052 0.04419,0.01223 0.01527,0.0017 0.03068,0.0018 0.04603,0.0025 0.01535,7.03e-4 0.03079,0.0021 0.04556,0.0063 0.01477,0.0043 0.02893,0.01157 0.03946,0.02278 0.01124,0.01197 0.01769,0.02757 0.02337,0.04297 0.0057,0.01541 0.01095,0.03125 0.02044,0.04465 0.01152,0.01626 0.02884,0.028 0.04773,0.03436 0.01889,0.0064 0.03928,0.0076 0.05908,0.0052 0.03959,-0.0046 0.07613,-0.02275 0.112249,-0.03961 0.335053,-0.156382 0.703787,-0.224634 1.05146,-0.350487 0.166094,-0.06012 0.327408,-0.133448 0.481919,-0.219054"
       id="path26"
       inkscape:path-effect="#path-effect26"
       inkscape:original-d="m 6.7030568,18.970089 c 0.055495,-0.318679 0.2021142,-0.703959 0.5695408,-0.744784 0.1309437,-0.01455 0.5173306,-0.04661 0.6571624,0 0.049952,0.01665 0.086282,0.06053 0.1314325,0.08762 0.1009596,0.06058 0.213739,0.10296 0.3066758,0.175244 0.041563,0.03233 0.054729,0.09032 0.087622,0.131432 0.1462235,0.18278 0.4413763,0.36618 0.6571624,0.438109 0.1571347,0.05238 0.4771955,-0.0059 0.6133516,-0.08762 0.035419,-0.02125 0.048803,-0.07351 0.087622,-0.08762 0.1265325,-0.04601 0.2636787,-0.05497 0.3942977,-0.08762 0.483565,-0.120892 -0.3202418,0.05664 0.306676,-0.131433 0.115346,-0.0346 0.233658,-0.05841 0.350487,-0.08762 0.178653,-0.04466 0.362817,0.05614 0.481919,0.175244 0.03723,0.03723 0.05039,0.0942 0.08762,0.131432 0.09567,0.09567 0.07113,0.0091 0.175244,0.04381 0.03098,0.01033 0.01283,0.07729 0.04381,0.08762 0.03651,0.01217 0.170376,-0.0081 0.219055,0 0.653221,0.10887 0.506072,-0.03234 1.05146,-0.350487 0.161413,-0.09416 0.319889,-0.138039 0.481919,-0.219054" />
  </g>
</svg>
